<?xml version="1.0" encoding="utf-8"?>
<!-- Svg Vector Icons : http://www.onlinewebfonts.com/icon -->
<!DOCTYPE svg PUBLIC "-//W3C//DTD SVG 1.1//EN" "http://www.w3.org/Graphics/SVG/1.1/DTD/svg11.dtd">
<svg version="1.1" xmlns="http://www.w3.org/2000/svg" xmlns:xlink="http://www.w3.org/1999/xlink" x="0px" y="0px" viewBox="0 0 1000 1000" enable-background="new 0 0 1000 1000" xml:space="preserve">
<metadata> Svg Vector Icons : http://www.onlinewebfonts.com/icon </metadata>
<g><g transform="translate(0.000000,512.000000) scale(0.100000,-0.100000)"><path d="M3694.7,4987.6c-222.9-59.6-411.1-220.9-520.7-440l-65.3-132.6l-5.8-380.4l-7.7-380.4H1848.4c-1189.2,0-1252.6-1.9-1319.9-36.5c-134.5-69.2-190.2-267.1-107.6-380.4c84.5-111.4,130.6-130.6,345.8-136.4c186.4-7.7,199.8-9.6,209.4-48c3.8-23.1,220.9-1640.7,480.3-3596.6c259.4-1953.9,478.4-3575.4,484.2-3602.3c5.8-26.9,40.3-105.7,76.9-176.8c109.5-209.4,307.4-368.9,534.1-426.5c99.9-26.9,399.6-30.7,2449.6-30.7c2551.4,0,2457.3-3.8,2651.3,109.5c219,128.7,384.2,366.9,422.7,611c9.6,63.4,224.8,1681.1,480.3,3592.7c253.6,1913.6,464.9,3496.7,470.7,3519.7c9.6,38.4,23.1,40.3,209.4,48c167.1,3.8,209.4,13.4,253.6,46.1c90.3,67.2,128.7,134.5,128.7,224.8c0,105.7-49.9,190.2-140.2,242.1c-71.1,40.3-88.4,40.3-1321.8,40.3H6907l-7.7,380.4l-5.8,380.4l-65.3,132.6c-111.4,222.9-299.7,380.4-530.3,440C6132.8,5031.8,3856.1,5029.8,3694.7,4987.6z M6225,4422.7c107.6-65.3,121-115.3,121-461.1v-307.4H5001.1H3656.3v307.4c0,345.8,13.5,395.8,121,461.1c59.6,36.5,105.7,38.4,1223.8,38.4C6119.3,4461.2,6165.4,4459.2,6225,4422.7z M8455.5,2978c-7.7-67.2-222.9-1669.6-474.6-3563.9c-351.6-2635.9-466.9-3456.3-493.7-3498.6c-17.3-32.7-65.3-76.8-103.8-98c-73-40.3-73-40.3-2382.3-40.3c-2080.7,0-2315.1,3.8-2374.7,30.7c-142.2,67.2-101.8-165.2-612.9,3673.4c-257.4,1930.8-472.6,3533.2-476.5,3563.9l-7.7,51.9h3471.7h3471.7L8455.5,2978z"/><path d="M3051.1,2388.1c-65.3-38.4-111.4-101.8-130.6-172.9c-5.8-25,71.1-1283.4,171-2795.4c151.8-2267.1,188.3-2760.8,215.2-2816.5c99.9-205.6,388.1-201.7,489.9,3.8c34.6,69.2,32.7,119.1-149.9,2843.4c-201.7,3035.6-180.6,2839.6-317,2929.9C3250.9,2434.3,3131.8,2438.1,3051.1,2388.1z"/><path d="M4872.4,2393.9c-34.6-17.3-80.7-59.6-101.8-94.1c-38.4-61.5-38.4-92.2-38.4-2862.6c0-2774.3,0-2801.2,38.4-2862.6c99.9-163.3,361.2-163.3,461.1,0c38.4,61.5,38.4,88.4,38.4,2862.6s0,2801.2-38.4,2862.6C5160.6,2415,4999.2,2455.4,4872.4,2393.9z"/><path d="M6672.6,2380.5c-136.4-90.3-115.3,105.7-317-2928c-184.4-2739.7-186.4-2772.3-149.9-2843.4c101.8-207.5,390-211.3,489.9-5.8c26.9,55.7,63.4,528.3,207.5,2708.9c96.1,1452.5,176.8,2707,178.7,2785.8c3.8,123-1.9,153.7-40.3,207.5C6953.1,2428.5,6791.7,2461.1,6672.6,2380.5z"/></g></g>
</svg>